<?xml version="1.0" encoding="UTF-8" standalone="no"?>
<!DOCTYPE svg PUBLIC "-//W3C//DTD SVG 1.1//EN"
 "http://www.w3.org/Graphics/SVG/1.1/DTD/svg11.dtd">
<!-- Generated by graphviz version 16.0.0 (20260814.1018)
 -->
<!-- Title: crm Pages: 1 -->
<svg width="1322pt" height="1059pt"
 viewBox="0.00 0.00 1322.00 1059.00" xmlns="http://www.w3.org/2000/svg" xmlns:xlink="http://www.w3.org/1999/xlink">
<g id="graph0" class="graph" transform="scale(1 1) rotate(0) translate(4 1055.2)">
<title>crm</title>
<polygon fill="white" stroke="none" points="-4,4 -4,-1055.2 1318.4,-1055.2 1318.4,4 -4,4"/>
<text xml:space="preserve" text-anchor="middle" x="657.2" y="-1037.3" font-family="Helvetica,sans-Serif" font-size="11.00">CRM Mosley &#45; modelos Eloquent y relaciones</text>
<g id="clust1" class="cluster">
<title>cluster_0</title>
<path fill="none" stroke="#9ca3af" d="M20,-8C20,-8 1262,-8 1262,-8 1268,-8 1274,-14 1274,-20 1274,-20 1274,-1010 1274,-1010 1274,-1016 1268,-1022 1262,-1022 1262,-1022 20,-1022 20,-1022 14,-1022 8,-1016 8,-1010 8,-1010 8,-20 8,-20 8,-14 14,-8 20,-8"/>
<text xml:space="preserve" text-anchor="middle" x="641" y="-1008.1" font-family="Helvetica,sans-Serif" font-size="11.00">Modelos Eloquent</text>
</g>
<!-- model:User -->
<g id="node1" class="node">
<title>model:User</title>
<ellipse fill="#fff7ed" stroke="black" cx="307" cy="-857.2" rx="27" ry="18"/>
<text xml:space="preserve" text-anchor="middle" x="307" y="-854.2" font-family="Helvetica,sans-Serif" font-size="10.00">User</text>
</g>
<!-- model:Lead -->
<g id="node7" class="node">
<title>model:Lead</title>
<ellipse fill="#fff7ed" stroke="black" cx="418" cy="-739.6" rx="27" ry="18"/>
<text xml:space="preserve" text-anchor="middle" x="418" y="-736.6" font-family="Helvetica,sans-Serif" font-size="10.00">Lead</text>
</g>
<!-- model:User&#45;&gt;model:Lead -->
<g id="edge62" class="edge">
<title>model:User&#45;&gt;model:Lead</title>
<path fill="none" stroke="#9a3412" d="M310.44,-838.97C313.85,-825.44 320.19,-806.75 331.17,-793.6 345.48,-776.45 366.85,-763.31 384.8,-754.41"/>
<polygon fill="#9a3412" stroke="#9a3412" points="386.24,-757.6 393.8,-750.17 383.26,-751.26 386.24,-757.6"/>
<text xml:space="preserve" text-anchor="middle" x="378.08" y="-796" font-family="Helvetica,sans-Serif" font-size="8.00">hasMany (assignedLeads)</text>
</g>
<!-- model:Notification -->
<g id="node22" class="node">
<title>model:Notification</title>
<ellipse fill="#fff7ed" stroke="black" cx="200" cy="-739.6" rx="39.37" ry="18"/>
<text xml:space="preserve" text-anchor="middle" x="200" y="-736.6" font-family="Helvetica,sans-Serif" font-size="10.00">Notification</text>
</g>
<!-- model:User&#45;&gt;model:Notification -->
<g id="edge61" class="edge">
<title>model:User&#45;&gt;model:Notification</title>
<path fill="none" stroke="#9a3412" d="M283.78,-847.85C263.77,-839.51 235.52,-824.8 218.74,-803.2 211.07,-793.32 206.53,-780.34 203.85,-768.76"/>
<polygon fill="#9a3412" stroke="#9a3412" points="207.35,-768.46 202.02,-759.31 200.48,-769.79 207.35,-768.46"/>
<text xml:space="preserve" text-anchor="middle" x="259.87" y="-796" font-family="Helvetica,sans-Serif" font-size="8.00">hasMany (notifications)</text>
</g>
<!-- model:Permission -->
<g id="node25" class="node">
<title>model:Permission</title>
<ellipse fill="#fff7ed" stroke="black" cx="79" cy="-739.6" rx="39.36" ry="18"/>
<text xml:space="preserve" text-anchor="middle" x="79" y="-736.6" font-family="Helvetica,sans-Serif" font-size="10.00">Permission</text>
</g>
<!-- model:User&#45;&gt;model:Permission -->
<g id="edge60" class="edge">
<title>model:User&#45;&gt;model:Permission</title>
<path fill="none" stroke="#9a3412" d="M280.16,-854.48C222.6,-850.16 90.34,-836.74 63.31,-803.2 55.15,-793.08 57.61,-779.27 62.74,-767.2"/>
<polygon fill="#9a3412" stroke="#9a3412" points="65.73,-769.05 67.06,-758.53 59.47,-765.92 65.73,-769.05"/>
<text xml:space="preserve" text-anchor="middle" x="104.65" y="-796" font-family="Helvetica,sans-Serif" font-size="8.00">hasMany (permissions)</text>
</g>
<!-- model:*polymorphic -->
<g id="node2" class="node">
<title>model:*polymorphic</title>
<ellipse fill="#fff7ed" stroke="black" cx="129" cy="-974.8" rx="42.7" ry="18"/>
<text xml:space="preserve" text-anchor="middle" x="129" y="-971.8" font-family="Helvetica,sans-Serif" font-size="10.00">(polimórfico)</text>
</g>
<!-- model:AgentControl -->
<g id="node3" class="node">
<title>model:AgentControl</title>
<ellipse fill="#fff7ed" stroke="black" cx="307" cy="-974.8" rx="44.72" ry="18"/>
<text xml:space="preserve" text-anchor="middle" x="307" y="-971.8" font-family="Helvetica,sans-Serif" font-size="10.00">AgentControl</text>
</g>
<!-- model:AgentControl&#45;&gt;model:User -->
<g id="edge1" class="edge">
<title>model:AgentControl&#45;&gt;model:User</title>
<path fill="none" stroke="#9a3412" d="M307,-956.74C307,-938.3 307,-908.6 307,-886.62"/>
<polygon fill="#9a3412" stroke="#9a3412" points="310.5,-886.84 307,-876.84 303.5,-886.84 310.5,-886.84"/>
<text xml:space="preserve" text-anchor="middle" x="325.68" y="-913.6" font-family="Helvetica,sans-Serif" font-size="8.00">belongsTo</text>
</g>
<!-- model:CartItem -->
<g id="node4" class="node">
<title>model:CartItem</title>
<ellipse fill="#fff7ed" stroke="black" cx="953" cy="-269.2" rx="32.68" ry="18"/>
<text xml:space="preserve" text-anchor="middle" x="953" y="-266.2" font-family="Helvetica,sans-Serif" font-size="10.00">CartItem</text>
</g>
<!-- model:Service -->
<g id="node5" class="node">
<title>model:Service</title>
<ellipse fill="#fff7ed" stroke="black" cx="953" cy="-151.6" rx="29.67" ry="18"/>
<text xml:space="preserve" text-anchor="middle" x="953" y="-148.6" font-family="Helvetica,sans-Serif" font-size="10.00">Service</text>
</g>
<!-- model:CartItem&#45;&gt;model:Service -->
<g id="edge2" class="edge">
<title>model:CartItem&#45;&gt;model:Service</title>
<path fill="none" stroke="#9a3412" d="M953,-251.14C953,-232.7 953,-203 953,-181.02"/>
<polygon fill="#9a3412" stroke="#9a3412" points="956.5,-181.24 953,-171.24 949.5,-181.24 956.5,-181.24"/>
<text xml:space="preserve" text-anchor="middle" x="971.68" y="-208" font-family="Helvetica,sans-Serif" font-size="8.00">belongsTo</text>
</g>
<!-- model:ServiceCategory -->
<g id="node29" class="node">
<title>model:ServiceCategory</title>
<ellipse fill="#fff7ed" stroke="black" cx="952" cy="-34" rx="54.07" ry="18"/>
<text xml:space="preserve" text-anchor="middle" x="952" y="-31" font-family="Helvetica,sans-Serif" font-size="10.00">ServiceCategory</text>
</g>
<!-- model:Service&#45;&gt;model:ServiceCategory -->
<g id="edge43" class="edge">
<title>model:Service&#45;&gt;model:ServiceCategory</title>
<path fill="none" stroke="#9a3412" d="M934.21,-137.46C922.34,-127.93 908.03,-113.9 901.41,-97.6 895.34,-82.66 905.01,-68.48 917.48,-57.39"/>
<polygon fill="#9a3412" stroke="#9a3412" points="919.6,-60.18 925.21,-51.2 915.22,-54.72 919.6,-60.18"/>
<text xml:space="preserve" text-anchor="middle" x="939.2" y="-90.4" font-family="Helvetica,sans-Serif" font-size="8.00">belongsTo (category)</text>
</g>
<!-- model:Client -->
<g id="node6" class="node">
<title>model:Client</title>
<ellipse fill="#fff7ed" stroke="black" cx="373" cy="-386.8" rx="27" ry="18"/>
<text xml:space="preserve" text-anchor="middle" x="373" y="-383.8" font-family="Helvetica,sans-Serif" font-size="10.00">Client</text>
</g>
<!-- model:Client&#45;&gt;model:Lead -->
<g id="edge3" class="edge">
<title>model:Client&#45;&gt;model:Lead</title>
<path fill="none" stroke="#9a3412" d="M347.37,-392.96C315.26,-400.85 265.93,-418.46 279,-450.4 330.54,-576.34 441.84,-547.29 486,-676 493.35,-697.42 471.92,-714.25 451.22,-725.04"/>
<polygon fill="#9a3412" stroke="#9a3412" points="449.79,-721.85 442.29,-729.33 452.82,-728.16 449.79,-721.85"/>
<text xml:space="preserve" text-anchor="middle" x="413.1" y="-560.8" font-family="Helvetica,sans-Serif" font-size="8.00">belongsTo</text>
</g>
<!-- model:Order -->
<g id="node8" class="node">
<title>model:Order</title>
<ellipse fill="#fff7ed" stroke="black" cx="732" cy="-504.4" rx="27" ry="18"/>
<text xml:space="preserve" text-anchor="middle" x="732" y="-501.4" font-family="Helvetica,sans-Serif" font-size="10.00">Order</text>
</g>
<!-- model:Client&#45;&gt;model:Order -->
<g id="edge4" class="edge">
<title>model:Client&#45;&gt;model:Order</title>
<path fill="none" stroke="#9a3412" d="M372.86,-405.04C373.73,-419.32 377.4,-439.07 390.09,-450.4 434.3,-489.89 613.57,-499.99 693.37,-502.55"/>
<polygon fill="#9a3412" stroke="#9a3412" points="693.23,-506.04 703.33,-502.84 693.43,-499.05 693.23,-506.04"/>
<text xml:space="preserve" text-anchor="middle" x="424.54" y="-443.2" font-family="Helvetica,sans-Serif" font-size="8.00">hasMany (invoices)</text>
</g>
<!-- model:ClientService -->
<g id="node9" class="node">
<title>model:ClientService</title>
<ellipse fill="#fff7ed" stroke="black" cx="717" cy="-269.2" rx="45.05" ry="18"/>
<text xml:space="preserve" text-anchor="middle" x="717" y="-266.2" font-family="Helvetica,sans-Serif" font-size="10.00">ClientService</text>
</g>
<!-- model:Client&#45;&gt;model:ClientService -->
<g id="edge5" class="edge">
<title>model:Client&#45;&gt;model:ClientService</title>
<path fill="none" stroke="#9a3412" d="M399.7,-382.65C478.89,-373.2 707.57,-344.96 718,-332.8 725.91,-323.58 726.72,-310.48 725.13,-298.65"/>
<polygon fill="#9a3412" stroke="#9a3412" points="728.58,-298.04 723.2,-288.91 721.71,-299.4 728.58,-298.04"/>
<text xml:space="preserve" text-anchor="middle" x="767.69" y="-325.6" font-family="Helvetica,sans-Serif" font-size="8.00">hasMany (clientServices)</text>
</g>
<!-- model:ClientDocument -->
<g id="node10" class="node">
<title>model:ClientDocument</title>
<ellipse fill="#fff7ed" stroke="black" cx="598" cy="-269.2" rx="52.4" ry="18"/>
<text xml:space="preserve" text-anchor="middle" x="598" y="-266.2" font-family="Helvetica,sans-Serif" font-size="10.00">ClientDocument</text>
</g>
<!-- model:Client&#45;&gt;model:ClientDocument -->
<g id="edge6" class="edge">
<title>model:Client&#45;&gt;model:ClientDocument</title>
<path fill="none" stroke="#9a3412" d="M399.61,-382.23C449.25,-375.06 553.27,-357.45 579,-332.8 588.32,-323.87 593.11,-310.53 595.56,-298.45"/>
<polygon fill="#9a3412" stroke="#9a3412" points="598.96,-299.36 597.02,-288.94 592.04,-298.29 598.96,-299.36"/>
<text xml:space="preserve" text-anchor="middle" x="626.11" y="-325.6" font-family="Helvetica,sans-Serif" font-size="8.00">hasMany (documents)</text>
</g>
<!-- model:Tag -->
<g id="node11" class="node">
<title>model:Tag</title>
<ellipse fill="#fff7ed" stroke="black" cx="399" cy="-269.2" rx="27" ry="18"/>
<text xml:space="preserve" text-anchor="middle" x="399" y="-266.2" font-family="Helvetica,sans-Serif" font-size="10.00">Tag</text>
</g>
<!-- model:Client&#45;&gt;model:Tag -->
<g id="edge7" class="edge">
<title>model:Client&#45;&gt;model:Tag</title>
<path fill="none" stroke="#9a3412" d="M397.98,-379.11C419.99,-371.75 450.7,-357.54 465,-332.8 476.46,-312.97 453.75,-295.52 431.91,-284.11"/>
<polygon fill="#9a3412" stroke="#9a3412" points="433.63,-281.05 423.1,-279.82 430.56,-287.35 433.63,-281.05"/>
<text xml:space="preserve" text-anchor="middle" x="507.71" y="-325.6" font-family="Helvetica,sans-Serif" font-size="8.00">belongsToMany (tags)</text>
</g>
<!-- model:SupportTicket -->
<g id="node12" class="node">
<title>model:SupportTicket</title>
<ellipse fill="#fff7ed" stroke="black" cx="287" cy="-269.2" rx="46.72" ry="18"/>
<text xml:space="preserve" text-anchor="middle" x="287" y="-266.2" font-family="Helvetica,sans-Serif" font-size="10.00">SupportTicket</text>
</g>
<!-- model:Client&#45;&gt;model:SupportTicket -->
<g id="edge8" class="edge">
<title>model:Client&#45;&gt;model:SupportTicket</title>
<path fill="none" stroke="#9a3412" d="M352.27,-375.08C336.56,-365.91 315.62,-351.27 303.32,-332.8 296.61,-322.74 292.66,-310.08 290.34,-298.78"/>
<polygon fill="#9a3412" stroke="#9a3412" points="293.83,-298.42 288.7,-289.15 286.92,-299.59 293.83,-298.42"/>
<text xml:space="preserve" text-anchor="middle" x="334.66" y="-325.6" font-family="Helvetica,sans-Serif" font-size="8.00">hasMany (tickets)</text>
</g>
<!-- model:Task -->
<g id="node13" class="node">
<title>model:Task</title>
<ellipse fill="#fff7ed" stroke="black" cx="43" cy="-269.2" rx="27" ry="18"/>
<text xml:space="preserve" text-anchor="middle" x="43" y="-266.2" font-family="Helvetica,sans-Serif" font-size="10.00">Task</text>
</g>
<!-- model:Client&#45;&gt;model:Task -->
<g id="edge9" class="edge">
<title>model:Client&#45;&gt;model:Task</title>
<path fill="none" stroke="#9a3412" d="M347.89,-379.68C312.06,-370.7 244.39,-352.83 188.32,-332.8 148.4,-318.54 103.82,-298.73 74.69,-285.24"/>
<polygon fill="#9a3412" stroke="#9a3412" points="76.24,-282.1 65.69,-281.04 73.28,-288.44 76.24,-282.1"/>
<text xml:space="preserve" text-anchor="middle" x="217.66" y="-325.6" font-family="Helvetica,sans-Serif" font-size="8.00">hasMany (tasks)</text>
</g>
<!-- model:Lead&#45;&gt;model:User -->
<g id="edge16" class="edge">
<title>model:Lead&#45;&gt;model:User</title>
<path fill="none" stroke="#9a3412" d="M427.16,-756.78C433.44,-770.22 439.12,-789.33 430,-803.2 411.3,-831.63 373.78,-844.87 345.08,-851"/>
<polygon fill="#9a3412" stroke="#9a3412" points="344.44,-847.56 335.27,-852.87 345.75,-854.44 344.44,-847.56"/>
<text xml:space="preserve" text-anchor="middle" x="472.33" y="-796" font-family="Helvetica,sans-Serif" font-size="8.00">belongsTo (assignee)</text>
</g>
<!-- model:Lead&#45;&gt;model:Task -->
<g id="edge20" class="edge">
<title>model:Lead&#45;&gt;model:Task</title>
<path fill="none" stroke="#9a3412" d="M391.66,-734.91C330.34,-726.06 182.14,-703.05 168,-685.6 162.5,-678.81 144.94,-673.76 179,-604 190.09,-581.28 226.99,-579.46 213,-558.4 190.14,-524 156.9,-551.22 127.32,-522.4 73.67,-470.14 93,-435.02 58,-368.8 49.24,-352.22 41.08,-350.85 36,-332.8 32.89,-321.74 33.51,-309.23 35.32,-298.3"/>
<polygon fill="#9a3412" stroke="#9a3412" points="38.71,-299.21 37.33,-288.71 31.86,-297.78 38.71,-299.21"/>
<text xml:space="preserve" text-anchor="middle" x="156.66" y="-502" font-family="Helvetica,sans-Serif" font-size="8.00">hasMany (tasks)</text>
</g>
<!-- model:LeadNote -->
<g id="node19" class="node">
<title>model:LeadNote</title>
<ellipse fill="#fff7ed" stroke="black" cx="365" cy="-622" rx="35.7" ry="18"/>
<text xml:space="preserve" text-anchor="middle" x="365" y="-619" font-family="Helvetica,sans-Serif" font-size="10.00">LeadNote</text>
</g>
<!-- model:Lead&#45;&gt;model:LeadNote -->
<g id="edge17" class="edge">
<title>model:Lead&#45;&gt;model:LeadNote</title>
<path fill="none" stroke="#9a3412" d="M411.4,-721.71C406.34,-709.02 399.05,-691.28 392,-676 387.98,-667.3 383.33,-657.94 379.03,-649.54"/>
<polygon fill="#9a3412" stroke="#9a3412" points="382.25,-648.16 374.54,-640.89 376.04,-651.38 382.25,-648.16"/>
<text xml:space="preserve" text-anchor="middle" x="425.59" y="-678.4" font-family="Helvetica,sans-Serif" font-size="8.00">hasMany (notes)</text>
</g>
<!-- model:LeadStatusHistory -->
<g id="node20" class="node">
<title>model:LeadStatusHistory</title>
<ellipse fill="#fff7ed" stroke="black" cx="249" cy="-622" rx="58.76" ry="18"/>
<text xml:space="preserve" text-anchor="middle" x="249" y="-619" font-family="Helvetica,sans-Serif" font-size="10.00">LeadStatusHistory</text>
</g>
<!-- model:Lead&#45;&gt;model:LeadStatusHistory -->
<g id="edge18" class="edge">
<title>model:Lead&#45;&gt;model:LeadStatusHistory</title>
<path fill="none" stroke="#9a3412" d="M391.69,-734.71C331.98,-725.6 190.29,-702.43 176.75,-685.6 163.36,-668.94 181.72,-653.21 203.28,-641.67"/>
<polygon fill="#9a3412" stroke="#9a3412" points="204.56,-644.95 211.96,-637.36 201.44,-638.68 204.56,-644.95"/>
<text xml:space="preserve" text-anchor="middle" x="219.88" y="-678.4" font-family="Helvetica,sans-Serif" font-size="8.00">hasMany (statusHistory)</text>
</g>
<!-- model:Quote -->
<g id="node21" class="node">
<title>model:Quote</title>
<ellipse fill="#fff7ed" stroke="black" cx="688" cy="-622" rx="27" ry="18"/>
<text xml:space="preserve" text-anchor="middle" x="688" y="-619" font-family="Helvetica,sans-Serif" font-size="10.00">Quote</text>
</g>
<!-- model:Lead&#45;&gt;model:Quote -->
<g id="edge19" class="edge">
<title>model:Lead&#45;&gt;model:Quote</title>
<path fill="none" stroke="#9a3412" d="M442.11,-730.83C471.34,-721.19 521.92,-703.78 564,-685.6 596.74,-671.46 633.03,-652.76 657.84,-639.5"/>
<polygon fill="#9a3412" stroke="#9a3412" points="659.25,-642.71 666.4,-634.89 655.94,-636.55 659.25,-642.71"/>
<text xml:space="preserve" text-anchor="middle" x="616.74" y="-678.4" font-family="Helvetica,sans-Serif" font-size="8.00">hasMany (quotes)</text>
</g>
<!-- model:Order&#45;&gt;model:Client -->
<g id="edge24" class="edge">
<title>model:Order&#45;&gt;model:Client</title>
<path fill="none" stroke="#9a3412" d="M704.85,-501.77C619.95,-496.39 363.76,-477.99 339.64,-450.4 329.17,-438.42 337.76,-422.59 348.85,-409.85"/>
<polygon fill="#9a3412" stroke="#9a3412" points="351.3,-412.35 355.67,-402.7 346.23,-407.52 351.3,-412.35"/>
<text xml:space="preserve" text-anchor="middle" x="358.32" y="-443.2" font-family="Helvetica,sans-Serif" font-size="8.00">belongsTo</text>
</g>
<!-- model:FiscalDocument -->
<g id="node17" class="node">
<title>model:FiscalDocument</title>
<ellipse fill="#fff7ed" stroke="black" cx="735" cy="-386.8" rx="52.73" ry="18"/>
<text xml:space="preserve" text-anchor="middle" x="735" y="-383.8" font-family="Helvetica,sans-Serif" font-size="10.00">FiscalDocument</text>
</g>
<!-- model:Order&#45;&gt;model:FiscalDocument -->
<g id="edge28" class="edge">
<title>model:Order&#45;&gt;model:FiscalDocument</title>
<path fill="none" stroke="#9a3412" d="M711.47,-492.15C693.38,-480.62 671.19,-461.48 679.98,-440.8 684.9,-429.24 693.71,-418.98 702.86,-410.63"/>
<polygon fill="#9a3412" stroke="#9a3412" points="705.07,-413.34 710.46,-404.22 700.56,-407.99 705.07,-413.34"/>
<text xml:space="preserve" text-anchor="middle" x="693.99" y="-443.2" font-family="Helvetica,sans-Serif" font-size="8.00">hasOne</text>
</g>
<!-- model:Order&#45;&gt;model:FiscalDocument -->
<g id="edge30" class="edge">
<title>model:Order&#45;&gt;model:FiscalDocument</title>
<path fill="none" stroke="#9a3412" d="M731.38,-486.12C731.03,-473.55 730.77,-456.12 731.3,-440.8 731.58,-432.84 732.09,-424.22 732.64,-416.3"/>
<polygon fill="#9a3412" stroke="#9a3412" points="736.12,-416.71 733.38,-406.48 729.14,-416.19 736.12,-416.71"/>
<text xml:space="preserve" text-anchor="middle" x="780.65" y="-443.2" font-family="Helvetica,sans-Serif" font-size="8.00">hasMany (fiscalDocuments)</text>
</g>
<!-- model:InvoiceItem -->
<g id="node18" class="node">
<title>model:InvoiceItem</title>
<ellipse fill="#fff7ed" stroke="black" cx="850" cy="-386.8" rx="40.37" ry="18"/>
<text xml:space="preserve" text-anchor="middle" x="850" y="-383.8" font-family="Helvetica,sans-Serif" font-size="10.00">InvoiceItem</text>
</g>
<!-- model:Order&#45;&gt;model:InvoiceItem -->
<g id="edge27" class="edge">
<title>model:Order&#45;&gt;model:InvoiceItem</title>
<path fill="none" stroke="#9a3412" d="M757.52,-498.18C807.58,-487.69 914.7,-463.91 925,-450.4 939.31,-431.64 915.91,-414.78 891.57,-403.3"/>
<polygon fill="#9a3412" stroke="#9a3412" points="893.13,-400.16 882.57,-399.33 890.31,-406.56 893.13,-400.16"/>
<text xml:space="preserve" text-anchor="middle" x="958.55" y="-443.2" font-family="Helvetica,sans-Serif" font-size="8.00">hasMany (items)</text>
</g>
<!-- model:Order&#45;&gt;model:Quote -->
<g id="edge25" class="edge">
<title>model:Order&#45;&gt;model:Quote</title>
<path fill="none" stroke="#9a3412" d="M725.56,-522.31C718.43,-541.06 706.81,-571.59 698.38,-593.73"/>
<polygon fill="#9a3412" stroke="#9a3412" points="695.13,-592.43 694.84,-603.02 701.67,-594.92 695.13,-592.43"/>
<text xml:space="preserve" text-anchor="middle" x="730" y="-560.8" font-family="Helvetica,sans-Serif" font-size="8.00">belongsTo</text>
</g>
<!-- model:Payment -->
<g id="node23" class="node">
<title>model:Payment</title>
<ellipse fill="#fff7ed" stroke="black" cx="817" cy="-269.2" rx="33.35" ry="18"/>
<text xml:space="preserve" text-anchor="middle" x="817" y="-266.2" font-family="Helvetica,sans-Serif" font-size="10.00">Payment</text>
</g>
<!-- model:Order&#45;&gt;model:Payment -->
<g id="edge26" class="edge">
<title>model:Order&#45;&gt;model:Payment</title>
<path fill="none" stroke="#9a3412" d="M757.99,-499.04C778.6,-495.58 808.14,-490.65 834,-486.4 883.32,-478.29 1023.61,-488.46 1056,-450.4 1067.3,-437.12 1049.09,-437.08 1032.3,-404.8 1014.31,-370.19 1029.09,-349.18 1000,-323.2 954.33,-282.4 925.57,-305.07 867,-287.2 863.2,-286.04 859.26,-284.79 855.33,-283.51"/>
<polygon fill="#9a3412" stroke="#9a3412" points="856.44,-280.19 845.84,-280.35 854.22,-286.83 856.44,-280.19"/>
<text xml:space="preserve" text-anchor="middle" x="1069.65" y="-384.4" font-family="Helvetica,sans-Serif" font-size="8.00">hasMany (payments)</text>
</g>
<!-- model:PaymentComplement -->
<g id="node24" class="node">
<title>model:PaymentComplement</title>
<ellipse fill="#fff7ed" stroke="black" cx="593" cy="-386.8" rx="67.44" ry="18"/>
<text xml:space="preserve" text-anchor="middle" x="593" y="-383.8" font-family="Helvetica,sans-Serif" font-size="10.00">PaymentComplement</text>
</g>
<!-- model:Order&#45;&gt;model:PaymentComplement -->
<g id="edge29" class="edge">
<title>model:Order&#45;&gt;model:PaymentComplement</title>
<path fill="none" stroke="#9a3412" d="M704.9,-502.13C643.86,-498.64 498.61,-486.63 468.95,-450.4 447.93,-424.72 485.32,-408.56 524.42,-399.11"/>
<polygon fill="#9a3412" stroke="#9a3412" points="524.99,-402.57 533.97,-396.95 523.44,-395.74 524.99,-402.57"/>
<text xml:space="preserve" text-anchor="middle" x="528.98" y="-443.2" font-family="Helvetica,sans-Serif" font-size="8.00">hasMany (paymentComplements)</text>
</g>
<!-- model:ClientService&#45;&gt;model:Service -->
<g id="edge12" class="edge">
<title>model:ClientService&#45;&gt;model:Service</title>
<path fill="none" stroke="#9a3412" d="M744.53,-254.71C788.3,-233.27 873.57,-191.51 920.35,-168.59"/>
<polygon fill="#9a3412" stroke="#9a3412" points="921.74,-171.81 929.18,-164.27 918.66,-165.52 921.74,-171.81"/>
<text xml:space="preserve" text-anchor="middle" x="860.76" y="-208" font-family="Helvetica,sans-Serif" font-size="8.00">belongsTo</text>
</g>
<!-- model:ClientService&#45;&gt;model:Client -->
<g id="edge11" class="edge">
<title>model:ClientService&#45;&gt;model:Client</title>
<path fill="none" stroke="#9a3412" d="M748.26,-282.56C774.6,-293.69 809.2,-310.24 817,-323.2 819.2,-326.86 819.83,-329.61 817,-332.8 772.13,-383.34 582.11,-360.78 515,-368.8 479.68,-373.02 439.42,-377.84 410.81,-381.27"/>
<polygon fill="#9a3412" stroke="#9a3412" points="410.71,-377.76 401.2,-382.42 411.54,-384.71 410.71,-377.76"/>
<text xml:space="preserve" text-anchor="middle" x="837.57" y="-325.6" font-family="Helvetica,sans-Serif" font-size="8.00">belongsTo</text>
</g>
<!-- model:ClientDocument&#45;&gt;model:Client -->
<g id="edge10" class="edge">
<title>model:ClientDocument&#45;&gt;model:Client</title>
<path fill="none" stroke="#9a3412" d="M632.42,-283.17C658.51,-294.93 687.3,-313.35 671,-332.8 662.64,-342.77 488.81,-369.04 410.58,-380.42"/>
<polygon fill="#9a3412" stroke="#9a3412" points="410.21,-376.94 400.82,-381.83 411.21,-383.86 410.21,-376.94"/>
<text xml:space="preserve" text-anchor="middle" x="693.93" y="-325.6" font-family="Helvetica,sans-Serif" font-size="8.00">belongsTo</text>
</g>
<!-- model:Tag&#45;&gt;model:Client -->
<g id="edge52" class="edge">
<title>model:Tag&#45;&gt;model:Client</title>
<path fill="none" stroke="#9a3412" d="M388.7,-286.17C382.78,-296.33 375.93,-310.01 372.85,-323.2 370.3,-334.12 369.83,-346.41 370.18,-357.18"/>
<polygon fill="#9a3412" stroke="#9a3412" points="366.68,-357.27 370.76,-367.04 373.67,-356.86 366.68,-357.27"/>
<text xml:space="preserve" text-anchor="middle" x="416.43" y="-325.6" font-family="Helvetica,sans-Serif" font-size="8.00">belongsToMany (clients)</text>
</g>
<!-- model:SupportTicket&#45;&gt;model:User -->
<g id="edge50" class="edge">
<title>model:SupportTicket&#45;&gt;model:User</title>
<path fill="none" stroke="#9a3412" d="M241.75,-274C200.55,-279.89 147.74,-294.86 159,-332.8 182.18,-410.89 219.1,-415.38 259,-486.4 278.69,-521.46 267.12,-542.33 298.07,-568 345.84,-607.63 385.56,-563.97 433,-604 469.65,-634.93 545.45,-765.35 516,-803.2 495.23,-829.9 399.61,-845.32 345.18,-852.07"/>
<polygon fill="#9a3412" stroke="#9a3412" points="344.93,-848.58 335.42,-853.24 345.76,-855.53 344.93,-848.58"/>
<text xml:space="preserve" text-anchor="middle" x="336.53" y="-560.8" font-family="Helvetica,sans-Serif" font-size="8.00">belongsTo (assignee)</text>
</g>
<!-- model:SupportTicket&#45;&gt;model:Client -->
<g id="edge49" class="edge">
<title>model:SupportTicket&#45;&gt;model:Client</title>
<path fill="none" stroke="#9a3412" d="M269.76,-286.15C257.89,-299.13 245.88,-317.69 255.64,-332.8 273.09,-359.83 308.02,-373.22 335.26,-379.76"/>
<polygon fill="#9a3412" stroke="#9a3412" points="334.39,-383.16 344.9,-381.85 335.87,-376.32 334.39,-383.16"/>
<text xml:space="preserve" text-anchor="middle" x="274.32" y="-325.6" font-family="Helvetica,sans-Serif" font-size="8.00">belongsTo</text>
</g>
<!-- model:TicketReply -->
<g id="node32" class="node">
<title>model:TicketReply</title>
<ellipse fill="#fff7ed" stroke="black" cx="446" cy="-151.6" rx="41.03" ry="18"/>
<text xml:space="preserve" text-anchor="middle" x="446" y="-148.6" font-family="Helvetica,sans-Serif" font-size="10.00">TicketReply</text>
</g>
<!-- model:SupportTicket&#45;&gt;model:TicketReply -->
<g id="edge51" class="edge">
<title>model:SupportTicket&#45;&gt;model:TicketReply</title>
<path fill="none" stroke="#9a3412" d="M310.12,-253.33C326.03,-242.94 347.55,-228.58 366,-215.2 383.73,-202.34 403.09,-187.22 418.33,-175.06"/>
<polygon fill="#9a3412" stroke="#9a3412" points="420.44,-177.86 426.04,-168.87 416.05,-172.4 420.44,-177.86"/>
<text xml:space="preserve" text-anchor="middle" x="408.91" y="-208" font-family="Helvetica,sans-Serif" font-size="8.00">hasMany (replies)</text>
</g>
<!-- model:Task&#45;&gt;model:User -->
<g id="edge55" class="edge">
<title>model:Task&#45;&gt;model:User</title>
<path fill="none" stroke="#9a3412" d="M34.72,-286.43C29.96,-296.68 24.45,-310.37 22,-323.2 21.2,-327.39 21.96,-328.53 22,-332.8 23.56,-521.62 -19.36,-575.07 29,-757.6 34.92,-779.94 35.43,-789.44 54,-803.2 87.7,-828.18 207.11,-844.94 269.07,-852.16"/>
<polygon fill="#9a3412" stroke="#9a3412" points="268.46,-855.62 278.79,-853.27 269.25,-848.66 268.46,-855.62"/>
<text xml:space="preserve" text-anchor="middle" x="45.6" y="-560.8" font-family="Helvetica,sans-Serif" font-size="8.00">belongsTo (assignee)</text>
</g>
<!-- model:Task&#45;&gt;model:User -->
<g id="edge56" class="edge">
<title>model:Task&#45;&gt;model:User</title>
<path fill="none" stroke="#9a3412" d="M35.69,-286.84C31.06,-299.4 26.38,-317.09 29,-332.8 29.51,-335.83 140.08,-670.61 155,-685.6 186.85,-717.6 214.16,-694.14 250,-721.6 281.33,-745.61 288.37,-756.56 302,-793.6 305.91,-804.23 307.47,-816.54 307.94,-827.42"/>
<polygon fill="#9a3412" stroke="#9a3412" points="304.45,-827.46 308.07,-837.42 311.44,-827.37 304.45,-827.46"/>
<text xml:space="preserve" text-anchor="middle" x="143.41" y="-560.8" font-family="Helvetica,sans-Serif" font-size="8.00">belongsTo (creator)</text>
</g>
<!-- model:Task&#45;&gt;model:Client -->
<g id="edge53" class="edge">
<title>model:Task&#45;&gt;model:Client</title>
<path fill="none" stroke="#9a3412" d="M57.23,-284.99C71.98,-299.43 96.38,-320.91 121.64,-332.8 192.24,-366.04 283.76,-378.6 334.61,-383.22"/>
<polygon fill="#9a3412" stroke="#9a3412" points="334.26,-386.71 344.52,-384.06 334.85,-379.73 334.26,-386.71"/>
<text xml:space="preserve" text-anchor="middle" x="140.32" y="-325.6" font-family="Helvetica,sans-Serif" font-size="8.00">belongsTo</text>
</g>
<!-- model:Task&#45;&gt;model:Lead -->
<g id="edge54" class="edge">
<title>model:Task&#45;&gt;model:Lead</title>
<path fill="none" stroke="#9a3412" d="M53.62,-286.26C92.88,-345.4 229.01,-548.69 258,-568 316.5,-606.96 354.24,-563.95 412,-604 427.8,-614.96 454.43,-657.6 460,-676 461.24,-680.08 461.4,-681.57 460,-685.6 456.1,-696.79 448.75,-707.4 441.27,-716.14"/>
<polygon fill="#9a3412" stroke="#9a3412" points="438.78,-713.67 434.6,-723.41 443.94,-718.41 438.78,-713.67"/>
<text xml:space="preserve" text-anchor="middle" x="235.52" y="-502" font-family="Helvetica,sans-Serif" font-size="8.00">belongsTo</text>
</g>
<!-- model:CausesIva -->
<g id="node14" class="node">
<title>model:CausesIva</title>
<ellipse fill="#fff7ed" stroke="black" cx="762" cy="-974.8" rx="38.03" ry="18"/>
<text xml:space="preserve" text-anchor="middle" x="762" y="-971.8" font-family="Helvetica,sans-Serif" font-size="10.00">CausesIva</text>
</g>
<!-- model:DiscountCode -->
<g id="node15" class="node">
<title>model:DiscountCode</title>
<ellipse fill="#fff7ed" stroke="black" cx="1044" cy="-974.8" rx="47.39" ry="18"/>
<text xml:space="preserve" text-anchor="middle" x="1044" y="-971.8" font-family="Helvetica,sans-Serif" font-size="10.00">DiscountCode</text>
</g>
<!-- model:DunningAttempt -->
<g id="node16" class="node">
<title>model:DunningAttempt</title>
<ellipse fill="#fff7ed" stroke="black" cx="573" cy="-622" rx="52.74" ry="18"/>
<text xml:space="preserve" text-anchor="middle" x="573" y="-619" font-family="Helvetica,sans-Serif" font-size="10.00">DunningAttempt</text>
</g>
<!-- model:DunningAttempt&#45;&gt;model:Order -->
<g id="edge13" class="edge">
<title>model:DunningAttempt&#45;&gt;model:Order</title>
<path fill="none" stroke="#9a3412" d="M573.41,-603.56C574.64,-589.72 578.45,-570.72 589.64,-558.4 616.56,-528.75 661.63,-515.63 693.85,-509.86"/>
<polygon fill="#9a3412" stroke="#9a3412" points="694.27,-513.33 703.59,-508.29 693.16,-506.42 694.27,-513.33"/>
<text xml:space="preserve" text-anchor="middle" x="608.32" y="-560.8" font-family="Helvetica,sans-Serif" font-size="8.00">belongsTo</text>
</g>
<!-- model:FiscalDocument&#45;&gt;model:Order -->
<g id="edge14" class="edge">
<title>model:FiscalDocument&#45;&gt;model:Order</title>
<path fill="none" stroke="#9a3412" d="M776.04,-398.42C797.62,-406.31 822.18,-419.5 835,-440.8 837.2,-444.46 837.22,-446.76 835,-450.4 820.6,-474.01 791.95,-487.54 768.52,-495.02"/>
<polygon fill="#9a3412" stroke="#9a3412" points="767.6,-491.64 758.97,-497.8 769.55,-498.36 767.6,-491.64"/>
<text xml:space="preserve" text-anchor="middle" x="855.34" y="-443.2" font-family="Helvetica,sans-Serif" font-size="8.00">belongsTo</text>
</g>
<!-- model:InvoiceItem&#45;&gt;model:Order -->
<g id="edge15" class="edge">
<title>model:InvoiceItem&#45;&gt;model:Order</title>
<path fill="none" stroke="#9a3412" d="M866.11,-403.55C877.6,-416.73 889.33,-435.7 879,-450.4 854.62,-485.1 805.2,-497.19 770.41,-501.34"/>
<polygon fill="#9a3412" stroke="#9a3412" points="770.34,-497.83 760.74,-502.31 771.04,-504.79 770.34,-497.83"/>
<text xml:space="preserve" text-anchor="middle" x="901.44" y="-443.2" font-family="Helvetica,sans-Serif" font-size="8.00">belongsTo</text>
</g>
<!-- model:LeadNote&#45;&gt;model:Lead -->
<g id="edge21" class="edge">
<title>model:LeadNote&#45;&gt;model:Lead</title>
<path fill="none" stroke="#9a3412" d="M354.95,-639.61C348.46,-652.63 342.45,-670.93 349.64,-685.6 357.4,-701.44 372.44,-713.91 386.44,-722.76"/>
<polygon fill="#9a3412" stroke="#9a3412" points="384.62,-725.75 395.02,-727.79 388.17,-719.71 384.62,-725.75"/>
<text xml:space="preserve" text-anchor="middle" x="368.32" y="-678.4" font-family="Helvetica,sans-Serif" font-size="8.00">belongsTo</text>
</g>
<!-- model:LeadStatusHistory&#45;&gt;model:Lead -->
<g id="edge22" class="edge">
<title>model:LeadStatusHistory&#45;&gt;model:Lead</title>
<path fill="none" stroke="#9a3412" d="M260.93,-639.88C271.27,-653.57 287.27,-672.65 304.64,-685.6 328.85,-703.65 360.18,-717.72 383.77,-726.82"/>
<polygon fill="#9a3412" stroke="#9a3412" points="382.33,-730.01 392.92,-730.23 384.77,-723.46 382.33,-730.01"/>
<text xml:space="preserve" text-anchor="middle" x="323.32" y="-678.4" font-family="Helvetica,sans-Serif" font-size="8.00">belongsTo</text>
</g>
<!-- model:Quote&#45;&gt;model:Lead -->
<g id="edge34" class="edge">
<title>model:Quote&#45;&gt;model:Lead</title>
<path fill="none" stroke="#9a3412" d="M664.16,-631.05C655.61,-633.91 645.88,-637.13 637,-640 585.89,-656.49 570.62,-653.96 521.64,-676 494.58,-688.18 465.86,-705.96 445.52,-719.46"/>
<polygon fill="#9a3412" stroke="#9a3412" points="443.58,-716.55 437.24,-725.04 447.49,-722.36 443.58,-716.55"/>
<text xml:space="preserve" text-anchor="middle" x="540.32" y="-678.4" font-family="Helvetica,sans-Serif" font-size="8.00">belongsTo</text>
</g>
<!-- model:Quote&#45;&gt;model:Order -->
<g id="edge36" class="edge">
<title>model:Quote&#45;&gt;model:Order</title>
<path fill="none" stroke="#9a3412" d="M667.44,-610.12C647.94,-598.28 623.26,-578.35 635.09,-558.4 648.16,-536.35 674.01,-522.87 695.73,-515.03"/>
<polygon fill="#9a3412" stroke="#9a3412" points="696.79,-518.37 705.18,-511.9 694.59,-511.72 696.79,-518.37"/>
<text xml:space="preserve" text-anchor="middle" x="669.54" y="-560.8" font-family="Helvetica,sans-Serif" font-size="8.00">hasMany (invoices)</text>
</g>
<!-- model:QuoteItem -->
<g id="node26" class="node">
<title>model:QuoteItem</title>
<ellipse fill="#fff7ed" stroke="black" cx="883" cy="-504.4" rx="37.7" ry="18"/>
<text xml:space="preserve" text-anchor="middle" x="883" y="-501.4" font-family="Helvetica,sans-Serif" font-size="10.00">QuoteItem</text>
</g>
<!-- model:Quote&#45;&gt;model:QuoteItem -->
<g id="edge35" class="edge">
<title>model:Quote&#45;&gt;model:QuoteItem</title>
<path fill="none" stroke="#9a3412" d="M707.77,-609.28C741.24,-589.44 809.4,-549.03 850.14,-524.88"/>
<polygon fill="#9a3412" stroke="#9a3412" points="851.76,-527.99 858.57,-519.88 848.19,-521.97 851.76,-527.99"/>
<text xml:space="preserve" text-anchor="middle" x="820.91" y="-560.8" font-family="Helvetica,sans-Serif" font-size="8.00">hasMany (items)</text>
</g>
<!-- model:Notification&#45;&gt;model:User -->
<g id="edge23" class="edge">
<title>model:Notification&#45;&gt;model:User</title>
<path fill="none" stroke="#9a3412" d="M178.1,-754.72C161.27,-767.37 142.74,-786.46 154.64,-803.2 180.34,-839.35 232.55,-851.05 268.63,-854.73"/>
<polygon fill="#9a3412" stroke="#9a3412" points="267.96,-858.18 278.22,-855.53 268.55,-851.21 267.96,-858.18"/>
<text xml:space="preserve" text-anchor="middle" x="173.32" y="-796" font-family="Helvetica,sans-Serif" font-size="8.00">belongsTo</text>
</g>
<!-- model:Payment&#45;&gt;model:Order -->
<g id="edge31" class="edge">
<title>model:Payment&#45;&gt;model:Order</title>
<path fill="none" stroke="#9a3412" d="M844.77,-279.64C852.01,-282.1 859.79,-284.75 867,-287.2 914.11,-303.21 942.4,-283.96 973,-323.2 984.19,-337.55 975.7,-387.04 979.64,-404.8 987.29,-439.29 999.74,-442.16 993,-450.4 985.9,-459.09 839.39,-485.09 769.06,-497.14"/>
<polygon fill="#9a3412" stroke="#9a3412" points="768.82,-493.63 759.55,-498.77 769.99,-500.53 768.82,-493.63"/>
<text xml:space="preserve" text-anchor="middle" x="998.32" y="-384.4" font-family="Helvetica,sans-Serif" font-size="8.00">belongsTo</text>
</g>
<!-- model:PaymentComplement&#45;&gt;model:Order -->
<g id="edge32" class="edge">
<title>model:PaymentComplement&#45;&gt;model:Order</title>
<path fill="none" stroke="#9a3412" d="M601.83,-405.11C609.4,-418.69 621.34,-437.4 635.64,-450.4 654.12,-467.2 678.86,-480.66 698.65,-489.82"/>
<polygon fill="#9a3412" stroke="#9a3412" points="697.12,-492.97 707.68,-493.84 699.97,-486.58 697.12,-492.97"/>
<text xml:space="preserve" text-anchor="middle" x="654.32" y="-443.2" font-family="Helvetica,sans-Serif" font-size="8.00">belongsTo</text>
</g>
<!-- model:PaymentComplement&#45;&gt;model:Payment -->
<g id="edge33" class="edge">
<title>model:PaymentComplement&#45;&gt;model:Payment</title>
<path fill="none" stroke="#9a3412" d="M642.82,-374.35C652.16,-372.37 661.86,-370.43 671,-368.8 727.99,-358.63 891,-376.47 929,-332.8 940.91,-319.11 892.3,-297.49 855.38,-283.58"/>
<polygon fill="#9a3412" stroke="#9a3412" points="856.87,-280.4 846.27,-280.22 854.45,-286.97 856.87,-280.4"/>
<text xml:space="preserve" text-anchor="middle" x="949.5" y="-325.6" font-family="Helvetica,sans-Serif" font-size="8.00">belongsTo</text>
</g>
<!-- model:QuoteItem&#45;&gt;model:Service -->
<g id="edge38" class="edge">
<title>model:QuoteItem&#45;&gt;model:Service</title>
<path fill="none" stroke="#9a3412" d="M920.32,-501.57C976.36,-496.46 1078.78,-477.17 1108,-404.8 1113.99,-389.96 1116.68,-382.24 1108,-368.8 1081.28,-327.42 1052.59,-341.84 1007,-323.2 964.05,-305.64 935.56,-325.25 909,-287.2 885.23,-253.15 911.98,-205.44 932.93,-176.91"/>
<polygon fill="#9a3412" stroke="#9a3412" points="935.52,-179.29 938.82,-169.23 929.96,-175.04 935.52,-179.29"/>
<text xml:space="preserve" text-anchor="middle" x="1059.12" y="-325.6" font-family="Helvetica,sans-Serif" font-size="8.00">belongsTo</text>
</g>
<!-- model:QuoteItem&#45;&gt;model:Quote -->
<g id="edge37" class="edge">
<title>model:QuoteItem&#45;&gt;model:Quote</title>
<path fill="none" stroke="#9a3412" d="M879.43,-522.59C875.65,-536.66 868.32,-556.11 855,-568 852.45,-570.27 771.28,-595.44 723.06,-610.26"/>
<polygon fill="#9a3412" stroke="#9a3412" points="722.14,-606.89 713.6,-613.17 724.19,-613.58 722.14,-606.89"/>
<text xml:space="preserve" text-anchor="middle" x="881.13" y="-560.8" font-family="Helvetica,sans-Serif" font-size="8.00">belongsTo</text>
</g>
<!-- model:RecurringInvoiceItem -->
<g id="node27" class="node">
<title>model:RecurringInvoiceItem</title>
<ellipse fill="#fff7ed" stroke="black" cx="821" cy="-622" rx="66.44" ry="18"/>
<text xml:space="preserve" text-anchor="middle" x="821" y="-619" font-family="Helvetica,sans-Serif" font-size="10.00">RecurringInvoiceItem</text>
</g>
<!-- model:RecurringInvoiceSchedule -->
<g id="node28" class="node">
<title>model:RecurringInvoiceSchedule</title>
<ellipse fill="#fff7ed" stroke="black" cx="720" cy="-739.6" rx="79.82" ry="18"/>
<text xml:space="preserve" text-anchor="middle" x="720" y="-736.6" font-family="Helvetica,sans-Serif" font-size="10.00">RecurringInvoiceSchedule</text>
</g>
<!-- model:RecurringInvoiceItem&#45;&gt;model:RecurringInvoiceSchedule -->
<g id="edge39" class="edge">
<title>model:RecurringInvoiceItem&#45;&gt;model:RecurringInvoiceSchedule</title>
<path fill="none" stroke="#9a3412" d="M822.42,-640.39C822.65,-653.83 820.99,-672.33 812,-685.6 802.25,-700 787.19,-710.98 772.06,-719.11"/>
<polygon fill="#9a3412" stroke="#9a3412" points="770.9,-715.78 763.52,-723.37 774.03,-722.04 770.9,-715.78"/>
<text xml:space="preserve" text-anchor="middle" x="855.22" y="-678.4" font-family="Helvetica,sans-Serif" font-size="8.00">belongsTo (schedule)</text>
</g>
<!-- model:RecurringInvoiceSchedule&#45;&gt;model:Client -->
<g id="edge40" class="edge">
<title>model:RecurringInvoiceSchedule&#45;&gt;model:Client</title>
<path fill="none" stroke="#9a3412" d="M706.35,-721.43C694.12,-707.18 674.91,-687.46 654,-676 595.76,-644.1 565.76,-674.46 509,-640 467.66,-614.9 470.03,-593.73 437,-558.4 390.85,-509.05 355.71,-512.89 330,-450.4 323.68,-435.04 333.99,-419.65 346.09,-407.97"/>
<polygon fill="#9a3412" stroke="#9a3412" points="348.23,-410.74 353.43,-401.52 343.61,-405.48 348.23,-410.74"/>
<text xml:space="preserve" text-anchor="middle" x="463.98" y="-560.8" font-family="Helvetica,sans-Serif" font-size="8.00">belongsTo</text>
</g>
<!-- model:RecurringInvoiceSchedule&#45;&gt;model:Quote -->
<g id="edge41" class="edge">
<title>model:RecurringInvoiceSchedule&#45;&gt;model:Quote</title>
<path fill="none" stroke="#9a3412" d="M706.29,-721.6C699.21,-711.72 691.32,-698.68 687.64,-685.6 684.61,-674.81 684.08,-662.54 684.52,-651.75"/>
<polygon fill="#9a3412" stroke="#9a3412" points="688.01,-652.09 685.25,-641.86 681.03,-651.57 688.01,-652.09"/>
<text xml:space="preserve" text-anchor="middle" x="706.32" y="-678.4" font-family="Helvetica,sans-Serif" font-size="8.00">belongsTo</text>
</g>
<!-- model:RecurringInvoiceSchedule&#45;&gt;model:RecurringInvoiceItem -->
<g id="edge42" class="edge">
<title>model:RecurringInvoiceSchedule&#45;&gt;model:RecurringInvoiceItem</title>
<path fill="none" stroke="#9a3412" d="M724.96,-721.33C729.41,-707.96 736.94,-689.49 747.88,-676 757.63,-663.97 770.75,-653.33 783.18,-644.8"/>
<polygon fill="#9a3412" stroke="#9a3412" points="784.78,-647.93 791.22,-639.53 780.94,-642.08 784.78,-647.93"/>
<text xml:space="preserve" text-anchor="middle" x="777.44" y="-678.4" font-family="Helvetica,sans-Serif" font-size="8.00">hasMany (items)</text>
</g>
<!-- model:ServiceCategory&#45;&gt;model:Service -->
<g id="edge48" class="edge">
<title>model:ServiceCategory&#45;&gt;model:Service</title>
<path fill="none" stroke="#9a3412" d="M962.78,-51.92C968.53,-61.97 975.03,-75.22 978,-88 980.91,-100.53 976.71,-113.83 970.98,-124.94"/>
<polygon fill="#9a3412" stroke="#9a3412" points="967.99,-123.12 965.95,-133.52 974.03,-126.66 967.99,-123.12"/>
<text xml:space="preserve" text-anchor="middle" x="1013.62" y="-90.4" font-family="Helvetica,sans-Serif" font-size="8.00">hasMany (services)</text>
</g>
<!-- model:ServiceBundle -->
<g id="node30" class="node">
<title>model:ServiceBundle</title>
<ellipse fill="#fff7ed" stroke="black" cx="1208" cy="-386.8" rx="48.4" ry="18"/>
<text xml:space="preserve" text-anchor="middle" x="1208" y="-383.8" font-family="Helvetica,sans-Serif" font-size="10.00">ServiceBundle</text>
</g>
<!-- model:ServiceBundle&#45;&gt;model:Service -->
<g id="edge45" class="edge">
<title>model:ServiceBundle&#45;&gt;model:Service</title>
<path fill="none" stroke="#9a3412" d="M1227.85,-370.13C1241.14,-357.64 1254.72,-339.58 1246,-323.2 1193.57,-224.72 1058.17,-178.55 991.39,-161.21"/>
<polygon fill="#9a3412" stroke="#9a3412" points="992.54,-157.89 981.99,-158.86 990.84,-164.68 992.54,-157.89"/>
<text xml:space="preserve" text-anchor="middle" x="1267.49" y="-266.8" font-family="Helvetica,sans-Serif" font-size="8.00">belongsToMany (services)</text>
</g>
<!-- model:ServiceBundleItem -->
<g id="node31" class="node">
<title>model:ServiceBundleItem</title>
<ellipse fill="#fff7ed" stroke="black" cx="1068" cy="-269.2" rx="60.09" ry="18"/>
<text xml:space="preserve" text-anchor="middle" x="1068" y="-266.2" font-family="Helvetica,sans-Serif" font-size="10.00">ServiceBundleItem</text>
</g>
<!-- model:ServiceBundle&#45;&gt;model:ServiceBundleItem -->
<g id="edge44" class="edge">
<title>model:ServiceBundle&#45;&gt;model:ServiceBundleItem</title>
<path fill="none" stroke="#9a3412" d="M1201.98,-368.57C1196.47,-354.86 1187.16,-335.92 1174,-323.2 1158.15,-307.88 1136.99,-296.1 1117.76,-287.58"/>
<polygon fill="#9a3412" stroke="#9a3412" points="1119.28,-284.42 1108.7,-283.76 1116.56,-290.87 1119.28,-284.42"/>
<text xml:space="preserve" text-anchor="middle" x="1211.26" y="-325.6" font-family="Helvetica,sans-Serif" font-size="8.00">hasMany (items)</text>
</g>
<!-- model:ServiceBundleItem&#45;&gt;model:Service -->
<g id="edge47" class="edge">
<title>model:ServiceBundleItem&#45;&gt;model:Service</title>
<path fill="none" stroke="#9a3412" d="M1051.52,-251.64C1031.59,-231.6 997.92,-197.76 975.58,-175.3"/>
<polygon fill="#9a3412" stroke="#9a3412" points="978.23,-173 968.69,-168.37 973.26,-177.93 978.23,-173"/>
<text xml:space="preserve" text-anchor="middle" x="1032.63" y="-208" font-family="Helvetica,sans-Serif" font-size="8.00">belongsTo</text>
</g>
<!-- model:ServiceBundleItem&#45;&gt;model:ServiceBundle -->
<g id="edge46" class="edge">
<title>model:ServiceBundleItem&#45;&gt;model:ServiceBundle</title>
<path fill="none" stroke="#9a3412" d="M1073.43,-287.46C1078.48,-301.19 1087.18,-320.13 1100.07,-332.8 1117.12,-349.56 1140.51,-361.94 1161.17,-370.49"/>
<polygon fill="#9a3412" stroke="#9a3412" points="1159.67,-373.66 1170.26,-374.07 1162.24,-367.15 1159.67,-373.66"/>
<text xml:space="preserve" text-anchor="middle" x="1134.53" y="-325.6" font-family="Helvetica,sans-Serif" font-size="8.00">belongsTo (bundle)</text>
</g>
<!-- model:TicketReply&#45;&gt;model:User -->
<g id="edge58" class="edge">
<title>model:TicketReply&#45;&gt;model:User</title>
<path fill="none" stroke="#9a3412" d="M487.32,-152.95C581.25,-154.51 807.32,-162.73 868,-205.6 901.15,-229.02 876.98,-262.25 909,-287.2 967.18,-332.53 1007.31,-286 1071,-323.2 1124.03,-354.17 1137,-383.19 1137,-444.6 1137,-740.6 1137,-740.6 1137,-740.6 1137,-821.59 509.01,-849.15 345.53,-854.95"/>
<polygon fill="#9a3412" stroke="#9a3412" points="345.53,-851.45 335.66,-855.29 345.77,-858.44 345.53,-851.45"/>
<text xml:space="preserve" text-anchor="middle" x="1155.68" y="-502" font-family="Helvetica,sans-Serif" font-size="8.00">belongsTo</text>
</g>
<!-- model:TicketReply&#45;&gt;model:Client -->
<g id="edge59" class="edge">
<title>model:TicketReply&#45;&gt;model:Client</title>
<path fill="none" stroke="#9a3412" d="M448.99,-169.61C454.52,-196.94 468.52,-251.2 497.64,-287.2 516.1,-310.02 539,-297.4 553,-323.2 555.03,-326.95 555.56,-329.38 553,-332.8 535.92,-355.63 458.02,-372.02 410.48,-380.1"/>
<polygon fill="#9a3412" stroke="#9a3412" points="410.18,-376.61 400.88,-381.69 411.31,-383.51 410.18,-376.61"/>
<text xml:space="preserve" text-anchor="middle" x="516.32" y="-266.8" font-family="Helvetica,sans-Serif" font-size="8.00">belongsTo</text>
</g>
<!-- model:TicketReply&#45;&gt;model:SupportTicket -->
<g id="edge57" class="edge">
<title>model:TicketReply&#45;&gt;model:SupportTicket</title>
<path fill="none" stroke="#9a3412" d="M405.92,-155.87C371.81,-160.89 324.21,-173.56 297.42,-205.6 289.65,-214.88 286.63,-227.73 285.72,-239.36"/>
<polygon fill="#9a3412" stroke="#9a3412" points="282.22,-239.25 285.45,-249.34 289.22,-239.44 282.22,-239.25"/>
<text xml:space="preserve" text-anchor="middle" x="329.21" y="-208" font-family="Helvetica,sans-Serif" font-size="8.00">belongsTo (ticket)</text>
</g>
</g>
</svg>
